HIERARCHY
ROOT hip
{
	OFFSET	0.00  0.00  0.00 
	CHANNELS 6 Xposition Yposition Zposition Xrotation Zrotation Yrotation
	JOINT waist
	{
		OFFSET	0.000000 2.191865 -0.079388
		CHANNELS 3 Xrotation Zrotation Yrotation
		JOINT abdomen
		{
			OFFSET	0.000000 2.770984 0.119082
			CHANNELS 3 Xrotation Zrotation Yrotation
			JOINT chest
			{
				OFFSET	0.000000 2.879627 -0.290598
				CHANNELS 3 Xrotation Zrotation Yrotation
				JOINT neck
				{
					OFFSET	0.000000 12.342733 -1.613748
					CHANNELS 3 Xrotation Zrotation Yrotation
					JOINT head
					{
						OFFSET	0.000000 4.485597 1.807195
						CHANNELS 3 Xrotation Zrotation Yrotation
						End Site
						{
							OFFSET 0.000000 7.191734 2.024398
						}
					}
				}
				JOINT lCollar
				{
					OFFSET	1.858774 10.237258 -1.915852
					CHANNELS 3 Zrotation Yrotation Xrotation
					JOINT lShldr
					{
						OFFSET	6.103279 0.000102 -0.038601
						CHANNELS 3 Zrotation Yrotation Xrotation
						JOINT lForeArm
						{
							OFFSET	10.574100 -0.365985 -0.655940
							CHANNELS 3 Zrotation Yrotation Xrotation
							JOINT lHand
							{
								OFFSET	13.213392 -0.641131 0.276866
								CHANNELS 3 Zrotation Yrotation Xrotation
								JOINT lThumb1
								{
									OFFSET	1.920964 -1.225712 1.722395
									CHANNELS 3 Zrotation Yrotation Xrotation
									JOINT lThumb2
									{
										OFFSET	0.248544 -0.143036 0.768265
										CHANNELS 3 Zrotation Yrotation Xrotation
										JOINT lThumb3
										{
											OFFSET	0.628484 -0.225174 0.508305
											CHANNELS 3 Zrotation Yrotation Xrotation
											End Site
											{
												OFFSET 0.831712 -0.207978 0.609962
											}
										}
									}
								}
								JOINT lIndex1
								{
									OFFSET	5.093442 -0.710319 1.829884
									CHANNELS 3 Zrotation Yrotation Xrotation
									JOINT lIndex2
									{
										OFFSET	0.889470 -0.051998 0.127073
										CHANNELS 3 Zrotation Yrotation Xrotation
										JOINT lIndex3
										{
											OFFSET	0.889570 -0.155981 0.127073
											CHANNELS 3 Zrotation Yrotation Xrotation
											End Site
											{
												OFFSET 0.797115 -0.294470 0.076252
											}
										}
									}
								}
								JOINT lMid1
								{
									OFFSET	5.154641 -0.519844 0.864111
									CHANNELS 3 Zrotation Yrotation Xrotation
									JOINT lMid2
									{
										OFFSET	0.928821 -0.051992 0.050831
										CHANNELS 3 Zrotation Yrotation Xrotation
										JOINT lMid3
										{
											OFFSET	0.984253 -0.311865 0.050831
											CHANNELS 3 Zrotation Yrotation Xrotation
											End Site
											{
												OFFSET 0.779717 -0.606438 -0.050831
											}
										}
									}
								}
								JOINT lRing1
								{
									OFFSET	4.924408 -0.754930 -0.235503
									CHANNELS 3 Zrotation Yrotation Xrotation
									JOINT lRing2
									{
										OFFSET	0.981624 -0.036924 -0.108278
										CHANNELS 3 Zrotation Yrotation Xrotation
										JOINT lRing3
										{
											OFFSET	0.805613 -0.205247 -0.041717
											CHANNELS 3 Zrotation Yrotation Xrotation
											End Site
											{
												OFFSET 0.667431 -0.470481 -0.035991
											}
										}
									}
								}
								JOINT lPinky1
								{
									OFFSET	4.535460 -0.816635 -1.006206
									CHANNELS 3 Zrotation Yrotation Xrotation
									JOINT lPinky2
									{
										OFFSET	0.690596 -0.064334 -0.168800
										CHANNELS 3 Zrotation Yrotation Xrotation
										JOINT lPinky3
										{
											OFFSET	0.598039 -0.111176 -0.071973
											CHANNELS 3 Zrotation Yrotation Xrotation
											End Site
											{
												OFFSET 0.422025 -0.290925 -0.035981
											}
										}
									}
								}
							}
						}
					}
				}
				JOINT rCollar
				{
					OFFSET	-1.858774 10.237258 -1.915852
					CHANNELS 3 Zrotation Yrotation Xrotation
					JOINT rShldr
					{
						OFFSET	-6.103279 0.000102 -0.038601
						CHANNELS 3 Zrotation Yrotation Xrotation
						JOINT rForeArm
						{
							OFFSET	-10.574100 -0.365985 -0.655940
							CHANNELS 3 Zrotation Yrotation Xrotation
							JOINT rHand
							{
								OFFSET	-13.213392 -0.641131 0.276866
								CHANNELS 3 Zrotation Yrotation Xrotation
								JOINT rIndex1
								{
									OFFSET	-5.093442 -0.710319 1.829884
									CHANNELS 3 Zrotation Yrotation Xrotation
									JOINT rIndex2
									{
										OFFSET	-0.889470 -0.051998 0.127073
										CHANNELS 3 Zrotation Yrotation Xrotation
										JOINT rIndex3
										{
											OFFSET	-0.889570 -0.155981 0.127073
											CHANNELS 3 Zrotation Yrotation Xrotation
											End Site
											{
												OFFSET -0.797115 -0.294470 0.076252
											}
										}
									}
								}
								JOINT rThumb1
								{
									OFFSET	-1.920964 -1.225712 1.722395
									CHANNELS 3 Zrotation Yrotation Xrotation
									JOINT rThumb2
									{
										OFFSET	-0.248544 -0.143036 0.768265
										CHANNELS 3 Zrotation Yrotation Xrotation
										JOINT rThumb3
										{
											OFFSET	-0.628484 -0.225174 0.508305
											CHANNELS 3 Zrotation Yrotation Xrotation
											End Site
											{
												OFFSET -0.831712 -0.207978 0.609962
											}
										}
									}
								}
								JOINT rMid1
								{
									OFFSET	-5.154641 -0.519844 0.864111
									CHANNELS 3 Zrotation Yrotation Xrotation
									JOINT rMid2
									{
										OFFSET	-0.928821 -0.051992 0.050831
										CHANNELS 3 Zrotation Yrotation Xrotation
										JOINT rMid3
										{
											OFFSET	-0.984253 -0.311865 0.050831
											CHANNELS 3 Zrotation Yrotation Xrotation
											End Site
											{
												OFFSET -0.779717 -0.606438 -0.050831
											}
										}
									}
								}
								JOINT rRing1
								{
									OFFSET	-4.924408 -0.754930 -0.235503
									CHANNELS 3 Zrotation Yrotation Xrotation
									JOINT rRing2
									{
										OFFSET	-0.981624 -0.036924 -0.108278
										CHANNELS 3 Zrotation Yrotation Xrotation
										JOINT rRing3
										{
											OFFSET	-0.805613 -0.205247 -0.041717
											CHANNELS 3 Zrotation Yrotation Xrotation
											End Site
											{
												OFFSET -0.667431 -0.470481 -0.035991
											}
										}
									}
								}
								JOINT rPinky1
								{
									OFFSET	-4.535460 -0.816635 -1.006206
									CHANNELS 3 Zrotation Yrotation Xrotation
									JOINT rPinky2
									{
										OFFSET	-0.690596 -0.064334 -0.168800
										CHANNELS 3 Zrotation Yrotation Xrotation
										JOINT rPinky3
										{
											OFFSET	-0.598039 -0.111176 -0.071973
											CHANNELS 3 Zrotation Yrotation Xrotation
											End Site
											{
												OFFSET -0.422025 -0.290925 -0.035981
											}
										}
									}
								}
							}
						}
					}
				}
			}
		}
	}
	JOINT lThigh
	{
		OFFSET	5.761895 -0.730553 0.000101
		CHANNELS 3 Xrotation Zrotation Yrotation
		JOINT lShin
		{
			OFFSET	-1.171020 -18.459274 1.627449
			CHANNELS 3 Xrotation Zrotation Yrotation
			JOINT lFoot
			{
				OFFSET	-0.883715 -16.872776 -3.357785
				CHANNELS 3 Xrotation Zrotation Yrotation
				JOINT lToe
				{
					OFFSET	1.287613 -2.778491 2.836049
					CHANNELS 3 Xrotation Yrotation Zrotation
					End Site
					{
						OFFSET 1.362641 -0.436631 3.828194
					}
				}
			}
		}
	}
	JOINT rThigh
	{
		OFFSET	-5.761895 -0.730553 0.000101
		CHANNELS 3 Xrotation Zrotation Yrotation
		JOINT rShin
		{
			OFFSET	1.171020 -18.459274 1.627449
			CHANNELS 3 Xrotation Zrotation Yrotation
			JOINT rFoot
			{
				OFFSET	0.883715 -16.872776 -3.357785
				CHANNELS 3 Xrotation Zrotation Yrotation
				JOINT rToe
				{
					OFFSET	-1.287613 -2.778491 2.836049
					CHANNELS 3 Xrotation Yrotation Zrotation
					End Site
					{
						OFFSET -1.362641 -0.436631 3.828194
					}
				}
			}
		}
	}
}
MOTION
Frames:     4
Frame Time: 0.033333
0.106822 39.038357 -0.872081 8.735867 1.108926 -9.522669 -11.572821 1.219586 -0.052203 -3.520829 3.161348 12.065563 15.501188 -1.657282 5.701969 7.337004 1.399687 -0.785242 -4.011817 1.435506 -6.881658 -5.393924 3.650304 1.616325 -76.690926 0.562899 -0.535121 13.261261 -28.489178 13.437455 30.896051 6.421432 -0.592040 14.717783 -3.578086 64.274971 -16.765638 9.537335 18.918411 -17.699480 9.965049 17.090807 -37.966629 -8.189871 4.458129 -50.476440 1.971407 6.390462 -70.058060 2.521390 5.434954 -44.307308 -12.034698 1.515499 -50.227810 -1.453668 1.642319 -59.781338 -2.495467 -4.542208 -49.072227 -15.741092 -4.202318 -46.435307 0.694696 -1.863979 -52.357471 0.213812 -1.920774 -49.639828 -25.159523 -16.891308 -54.227810 3.258813 -4.701102 -46.034809 -0.050618 -3.090198 6.043456 3.292962 -4.580763 75.668900 1.542338 1.697745 -4.613608 37.426556 -6.808437 -29.117702 -2.031816 -1.056462 47.472687 3.561955 5.687331 57.930889 -5.479301 7.599611 75.390419 -3.510755 5.861156 -20.232203 -6.061973 60.535984 9.051890 0.572721 6.926417 8.844881 -35.921230 38.006313 46.261501 9.680479 1.704247 58.288067 -0.954515 2.590355 65.077118 1.791510 -4.055038 50.470230 13.568729 -4.230431 54.977383 -1.701895 -1.852682 57.960339 -0.504078 -1.820319 50.966141 23.187334 -16.351952 63.001598 -2.200050 -5.372185 81.653137 2.204035 -5.062697 -30.040205 7.618025 13.948300 14.221308 2.533544 -2.225923 30.384518 14.820978 1.549423 -13.507670 6.103738 5.294063 -4.873696 -8.847898 2.315953 18.163334 1.212067 -1.943896 61.217178 -26.705696 0.907861 -24.217484 -8.589204 -9.101575 
0.172062 39.163410 -0.872124 8.402618 1.909034 -10.026009 -11.563120 1.287883 -0.055126 -3.597820 1.733584 11.457561 15.178371 -1.561144 5.715518 7.368745 1.122565 -0.663035 -4.098266 0.854059 -6.313901 -5.450437 4.118882 1.225215 -77.203835 -1.176175 -0.508301 14.883383 -28.635036 16.543600 29.110302 6.133541 -0.553550 15.125132 -3.166828 63.085876 -17.147469 8.923821 18.765221 -17.702738 9.880015 17.045975 -37.840553 -9.061263 4.396413 -50.539394 1.223597 6.254728 -70.088135 2.339977 5.366732 -44.322552 -12.922017 1.469849 -50.164806 -2.173092 1.412874 -59.839222 -2.597687 -4.623259 -49.278240 -16.685940 -4.237439 -46.192841 0.011215 -2.031231 -52.340343 0.070491 -2.021535 -49.861546 -26.035946 -17.247698 -53.822659 2.812755 -4.759470 -46.102329 -0.061067 -3.100115 6.163190 2.658452 -4.248723 75.910774 0.170408 1.197539 -5.260714 38.274662 -5.255522 -26.241959 -0.189741 -1.164604 47.415676 3.675534 5.674994 57.943443 -5.393610 7.583671 75.391518 -3.501656 5.857190 -20.286564 -6.129574 60.436367 9.083705 0.646138 6.917677 8.903313 -35.886799 38.008595 46.215813 9.789547 1.696381 58.273502 -0.860801 2.560122 65.096596 1.792278 -4.055772 50.451736 13.684904 -4.232170 54.944416 -1.608426 -1.875763 57.949806 -0.488418 -1.831214 50.957886 23.293737 -16.383860 62.927528 -2.149567 -5.378123 81.653137 2.204035 -5.062697 -27.630672 6.510480 14.660534 14.235142 2.406936 -2.810751 30.936142 15.559781 2.232425 -13.118186 6.297459 5.179828 -6.820549 -9.509808 3.677790 23.031549 0.933227 -1.679790 65.576431 -28.419827 -0.567557 -24.530031 -8.294548 -9.175784 
0.209679 39.301834 -0.871932 8.383094 2.546132 -10.151355 -11.543606 1.307396 -0.055961 -3.803802 0.442539 10.537118 14.815893 -1.329223 5.744576 7.390692 0.735272 -0.370067 -4.331438 0.135837 -5.727857 -5.506005 4.401897 0.707960 -78.090973 -2.981302 -0.259212 15.776614 -29.032103 18.159327 27.889980 4.378508 -0.719918 15.419886 -2.875590 62.298069 -17.397421 8.502056 18.651915 -17.702530 9.822937 17.013819 -37.721596 -9.667856 4.350968 -50.565647 0.733647 6.165515 -70.130379 2.223848 5.323855 -44.299625 -13.518025 1.439589 -50.131161 -2.658642 1.258719 -59.861256 -2.667805 -4.678783 -49.391335 -17.330486 -4.263887 -46.007656 -0.437387 -2.140338 -52.344624 -0.033453 -2.094961 -49.983467 -26.608984 -17.478422 -53.558292 2.508352 -4.799961 -46.141293 -0.062456 -3.102622 6.118082 1.691816 -3.779381 76.139938 -1.309462 0.921646 -6.368021 38.704559 -2.965684 -23.355160 1.598273 -1.263982 47.400188 4.000484 5.653514 57.956223 -5.172431 7.540978 75.393700 -3.483455 5.850450 -20.352161 -6.276979 60.079319 9.192748 0.857060 6.905896 9.020003 -35.825722 38.033672 46.215805 10.101783 1.680282 58.255890 -0.636542 2.488379 65.124382 1.808792 -4.068845 50.531876 14.023615 -4.245113 54.838192 -1.394588 -1.927555 57.948631 -0.464488 -1.847992 51.038597 23.603918 -16.502012 62.766647 -2.020905 -5.395052 81.653137 2.204035 -5.062697 -25.391106 5.663289 14.359835 14.419950 2.163344 -2.700616 31.188284 15.579268 2.014936 -12.713596 6.559891 5.066308 -11.524065 -9.588509 3.675054 30.920422 -0.034007 -0.612472 66.406960 -28.704004 -2.620638 -22.292253 -7.642149 -8.407892 
0.201964 39.398491 -0.871584 8.686992 3.000702 -9.899052 -11.543576 1.278126 -0.054708 -4.074792 -0.588160 9.335802 14.454988 -1.082963 5.116893 7.353199 0.346498 0.049860 -4.722818 -0.532592 -5.145310 -5.580282 4.489595 0.082487 -78.261734 -4.674329 0.198162 15.859266 -29.823015 17.893353 27.274685 2.086178 -0.978106 15.539772 -2.760151 62.007481 -17.502684 8.334037 18.611723 -17.705887 9.794952 16.999514 -37.651039 -9.898671 4.331266 -50.573189 0.540493 6.130289 -70.146118 2.169952 5.304070 -44.266380 -13.743654 1.425531 -50.117386 -2.854735 1.196622 -59.878311 -2.691524 -4.697539 -49.410465 -17.576670 -4.271943 -45.950569 -0.624943 -2.186659 -52.322960 -0.072817 -2.122328 -50.003090 -26.828697 -17.565126 -53.457989 2.382233 -4.817424 -46.160114 -0.071175 -3.109404 6.063995 0.481041 -3.212231 76.501945 -2.845451 0.868958 -7.805617 38.549969 -0.157537 -20.593046 2.815804 -1.295947 47.393833 4.510698 5.622745 57.975727 -4.835853 7.475878 75.405579 -3.466058 5.844075 -20.438065 -6.499232 59.504700 9.365425 1.177823 6.893338 9.187619 -35.729988 38.048378 46.250629 10.588328 1.657359 58.214314 -0.299576 2.380323 65.152878 1.817626 -4.075932 50.665424 14.542459 -4.264403 54.688087 -1.068740 -2.006936 57.946667 -0.424606 -1.876093 51.186329 24.094143 -16.692415 62.520924 -1.833132 -5.419043 81.653137 2.204035 -5.062697 -23.445608 4.990796 13.007527 14.377069 1.766764 -2.288623 31.041313 15.987598 2.083163 -11.842787 6.638767 4.778718 -17.242889 -9.377764 2.124241 37.557240 -1.122954 0.699096 66.206467 -27.966112 -4.666222 -19.958719 -7.144980 -7.609634 
